<?xml version="1.0" encoding="utf-8"?>
<!-- Generator: Adobe Illustrator 27.5.0, SVG Export Plug-In . SVG Version: 6.00 Build 0)  -->
<svg version="1.1" xmlns="http://www.w3.org/2000/svg" xmlns:xlink="http://www.w3.org/1999/xlink" x="0px" y="0px"
	 viewBox="0 0 500 500" style="enable-background:new 0 0 500 500;" xml:space="preserve">
<g id="BACKGROUND">
	<g>
		<defs>
			<rect id="SVGID_1_" x="0.05" y="-0.036" width="499.9" height="500.071"/>
		</defs>
		<use xlink:href="#SVGID_1_"  style="overflow:visible;fill:#B7BCCA;"/>
		<clipPath id="SVGID_00000064317985736937965160000010467748435107687606_">
			<use xlink:href="#SVGID_1_"  style="overflow:visible;"/>
		</clipPath>
		
			<rect x="0.05" y="-0.036" style="clip-path:url(#SVGID_00000064317985736937965160000010467748435107687606_);fill:#FFFFFF;" width="499.9" height="500.071"/>
	</g>
</g>
<g id="OBJECTS">
	<g>
		<g>
			
				<radialGradient id="SVGID_00000179626690210855495720000007849776655305265589_" cx="247.4017" cy="391.5397" r="57.2997" gradientTransform="matrix(1 0 0 0.102 0 351.6056)" gradientUnits="userSpaceOnUse">
				<stop  offset="0" style="stop-color:#000000"/>
				<stop  offset="0.029" style="stop-color:#171717"/>
				<stop  offset="0.0965" style="stop-color:#474747"/>
				<stop  offset="0.1696" style="stop-color:#737373"/>
				<stop  offset="0.2467" style="stop-color:#999999"/>
				<stop  offset="0.3287" style="stop-color:#B9B9B9"/>
				<stop  offset="0.4172" style="stop-color:#D2D2D2"/>
				<stop  offset="0.5147" style="stop-color:#E6E6E6"/>
				<stop  offset="0.6259" style="stop-color:#F4F4F4"/>
				<stop  offset="0.7627" style="stop-color:#FDFDFD"/>
				<stop  offset="1" style="stop-color:#FFFFFF"/>
			</radialGradient>
			
				<ellipse style="opacity:0.41;fill:url(#SVGID_00000179626690210855495720000007849776655305265589_);" cx="247.402" cy="391.54" rx="58.769" ry="6.401"/>
			<g>
				
					<linearGradient id="SVGID_00000139273144788070569290000004652157696673844140_" gradientUnits="userSpaceOnUse" x1="252.7047" y1="94.1818" x2="240.038" y2="397.5151">
					<stop  offset="0" style="stop-color:#EAA928"/>
					<stop  offset="1" style="stop-color:#E0982D"/>
				</linearGradient>
				<path style="fill:url(#SVGID_00000139273144788070569290000004652157696673844140_);" d="M238.33,388.259L93.774,243.703
					c-4.667-4.667-4.667-12.304,0-16.971L238.33,82.177c4.667-4.667,12.304-4.667,16.971,0l144.555,144.556
					c4.667,4.667,4.667,12.304,0,16.971L255.301,388.259C250.634,392.925,242.997,392.925,238.33,388.259z"/>
				<polygon style="fill:#E08722;" points="145.071,295 179.738,329.667 313.892,329.667 348.559,295 				"/>
				<path style="fill:none;stroke:#2D2C2B;stroke-width:3;stroke-miterlimit:10;" d="M238.33,370.175L111.858,243.703
					c-4.667-4.667-4.667-12.304,0-16.971L238.33,100.261c4.667-4.667,12.304-4.667,16.971,0l126.472,126.472
					c4.667,4.667,4.667,12.304,0,16.971L255.301,370.175C250.634,374.842,242.997,374.842,238.33,370.175z"/>
				<circle style="fill:#7A7A79;" cx="246.076" cy="117.107" r="7.158"/>
				<circle style="fill:#7A7A79;" cx="129.132" cy="234.412" r="7.158"/>
				<circle style="fill:#7A7A79;" cx="367.892" cy="234.412" r="7.158"/>
				<circle style="fill:#7A7A79;" cx="247.218" cy="354.725" r="7.158"/>
			</g>
		</g>
		<g>
			<g>
				
					<linearGradient id="SVGID_00000108299406466747667340000016145086375020638866_" gradientUnits="userSpaceOnUse" x1="158.2696" y1="459.1744" x2="298.2696" y2="61.8411">
					<stop  offset="0" style="stop-color:#EAA928"/>
					<stop  offset="0.468" style="stop-color:#EDD236"/>
					<stop  offset="0.4792" style="stop-color:#EDD336"/>
					<stop  offset="1" style="stop-color:#FFF366"/>
				</linearGradient>
				<path style="fill:url(#SVGID_00000108299406466747667340000016145086375020638866_);" d="M121.774,275.094
					c-0.816-2.38-4.879-3.305-5.538-5.774c-1.22-4.515,12.472-2.125,7.308-7.701c-1.121-1.21-5.567-3.895-4.308-6.01
					c1.102-1.849,5.429-1.643,7.16-2.626c5.459-3.098-7.888-6.56-3.797-9.964c1.751-1.446,7.141-0.934,8.056-3.384
					c0.738-1.987-3.433-4.436-4.554-5.587c-4.859-5.056,7.22-3.511,7.357-7.318c0.108-2.951-4.879-3.61-5.685-6.265
					c-0.787-2.577,3.098-2.823,4.928-3.413c10.603-3.472-5.351-5.98-1.928-10.692c0.511-0.708,2.833-0.905,3.61-1.151
					c1.17-0.374,3.236-0.698,4.121-1.584c2.125-2.125-1.407-4.18-2.902-5.587c-1.308-1.229-3.128-2.4-1.564-3.954
					c1.839-1.849,5.901-0.866,7.662-2.656c3.295-3.334-6.492-6.423-5.242-8.862l204.989,9.403l1.918,80.418l-223.451,5.587
					C121.282,277.405,122.266,276.53,121.774,275.094z"/>
				<path style="fill:#EDD336;" d="M352.533,272.163l-9.167,0.226l-1.918-80.418l10.839,0.502l0.157,50.448
					c-0.01,0.256,0,0.521,0,0.777L352.533,272.163z"/>
				<path style="opacity:0.19;fill:#2D2C2B;" d="M386.506,271.956c0,4.229-3.305,7.721-7.436,7.78
					c-6.295,0.079-12.6,0.069-18.895-0.029c-4.574-0.059-7.524-3-7.642-7.544l-9.167,0.226l-1.918-80.418l10.839,0.502
					c-0.03-5.361,3.384-8.538,8.478-8.498c2.302,0.02,4.593-0.049,6.895-0.079c0-0.374,0-0.757-0.01-1.131l5.921,1.043
					l12.905,74.802C386.486,263.065,386.506,267.501,386.506,271.956z"/>
				<g>
					
						<linearGradient id="SVGID_00000166654668808361285470000008812765575232527754_" gradientUnits="userSpaceOnUse" x1="450.1297" y1="219.6667" x2="450.1297" y2="236.3467">
						<stop  offset="0" style="stop-color:#EAA928"/>
						<stop  offset="1" style="stop-color:#E0982D"/>
					</linearGradient>
					<path style="fill:url(#SVGID_00000166654668808361285470000008812765575232527754_);" d="M427.368,234.896
						c4.611,0.75,9.283,0.71,13.924,1.053c7.462,0.552,14.96,0.705,22.398,1.465c6.004,0.613,9.445-2.869,10.1-8.316
						c0.245-2.035,0.204-4.09-0.595-6.028c-2.112-5.125-4.342-6.174-11.328-5.654c-11.588,0.862-23.182,1.653-34.774,2.473
						c-0.727,0.11-0.731,0.694-0.736,1.212c-0.041,4.106-0.021,8.213,0.022,12.319C426.388,234.106,426.49,234.772,427.368,234.896z
						"/>
					<path style="fill:#3A3A3A;" d="M419.912,229.454c-0.158-1.426,0.606-2.984-0.573-4.252c-2.226,0.021-4.447,0.121-6.659,0.044
						c-3.835-0.116-6.305-2.608-6.32-6.39c-0.023-9.75,0.012-19.497,0.018-29.236c-0.005-3.998,0.03-7.994-0.053-11.987
						c-0.128-6.131-5.251-11.4-11.357-11.595c-5.408-0.172-10.836-0.118-16.245,0.134c-6.928,0.307-11.226,6.136-11.107,12.474
						c0.023,1.37,0.026,2.739,0.038,4.118c0.002,0.374,0.003,0.758,0.005,1.133c1.979,0.213,3.943,0.318,5.913-0.09
						c0.035-1.948,0.059-3.897,0.114-5.854c0.101-3.117,2.582-5.774,5.668-5.842c4.988-0.105,9.982-0.13,14.97-0.038
						c3.63,0.066,5.942,2.777,5.957,6.766c0.039,11.267,0.038,22.532,0.127,33.792c0.026,3.143-0.323,6.297,0.354,9.431
						c1.193,5.493,6.512,9.353,11.805,9.243c2.218-0.051,4.442-0.023,6.668-0.024C420.214,230.956,419.98,230.088,419.912,229.454z"
						/>
					<path style="fill:#EDD336;" d="M419.335,225.199c0.106,2.03,0.33,4.061-0.101,6.082c0.5,1.455,0.048,2.965,0.264,4.448
						c0.297,2.04,1.466,3.383,3.278,3.512c2.033,0.144,3.554-0.935,3.97-2.992c0.111-0.546,0.222-0.987,0.622-1.352
						c-0.309-0.343-0.521-0.672-0.519-1.205c0.016-4.429-0.022-8.859-0.027-13.288c0-0.171,0.177-0.343,0.272-0.514
						c-0.141-0.369-0.308-0.73-0.42-1.107c-0.687-2.318-2.037-3.323-4.08-3.021c-2.194,0.325-3.197,1.533-3.239,3.969
						C419.324,221.553,419.34,223.376,419.335,225.199z"/>
					
						<linearGradient id="SVGID_00000085956591192703539000000008236765264733383818_" gradientUnits="userSpaceOnUse" x1="274.8586" y1="500.2545" x2="414.8586" y2="102.9211">
						<stop  offset="0" style="stop-color:#EAA928"/>
						<stop  offset="0.468" style="stop-color:#EDD236"/>
						<stop  offset="0.4792" style="stop-color:#EDD336"/>
						<stop  offset="1" style="stop-color:#FFF366"/>
					</linearGradient>
					<path style="fill:url(#SVGID_00000085956591192703539000000008236765264733383818_);" d="M386.504,271.953
						c-0.003-4.451-0.015-8.893-0.028-13.344c-0.025-14.211-0.07-28.432-0.115-42.644c-0.023-8.115-0.036-16.24-0.118-24.358
						c-0.05-4.276-3.459-7.522-7.757-7.621c-1.633-0.029-3.289,0.206-4.915-0.177c-1.974-0.312-3.95-0.387-5.913,0.09
						c-2.296,0.027-4.593,0.094-6.897,0.072c-5.089-0.038-8.502,3.146-8.474,8.504c0.096,16.824,0.125,33.634,0.153,50.445
						c-0.002,0.256,0.004,0.522,0.002,0.778c0.012,5.692,0.023,11.385,0.035,17.077c0.005,3.791-0.04,7.59,0.053,11.386
						c0.116,4.545,3.067,7.484,7.643,7.546c6.298,0.096,12.599,0.114,18.895,0.033C383.198,279.681,386.507,276.187,386.504,271.953
						z"/>
				</g>
			</g>
			<text transform="matrix(0.9999 0.0107 -0.0107 0.9999 143.5987 232.9052)" style="opacity:0.19;"><tspan x="0" y="0" style="fill:#2D2C2B; font-family:'Montserrat-ExtraBold'; font-size:51.0938px;">UNDER</tspan><tspan x="-1.972" y="21.973" style="fill:#2D2C2B; font-family:'Montserrat-ExtraBold'; font-size:23.3163px;">CONSTRUCTION</tspan></text>
			<text transform="matrix(0.9999 0.0107 -0.0107 0.9999 145.014 233.0702)"><tspan x="0" y="0" style="fill:#2D2C2B; font-family:'Montserrat-ExtraBold'; font-size:51.0938px;">UNDER</tspan><tspan x="-1.972" y="21.973" style="fill:#2D2C2B; font-family:'Montserrat-ExtraBold'; font-size:23.3163px;">CONSTRUCTION</tspan></text>
		</g>
		<g>
			
				<linearGradient id="SVGID_00000173863437566458863450000008727221309468009909_" gradientUnits="userSpaceOnUse" x1="130.3333" y1="291.33" x2="339.4691" y2="291.33">
				<stop  offset="0" style="stop-color:#595959"/>
				<stop  offset="0.8969" style="stop-color:#323130"/>
				<stop  offset="1" style="stop-color:#2D2C2B"/>
			</linearGradient>
			<path style="fill:url(#SVGID_00000173863437566458863450000008727221309468009909_);" d="M368.557,286.86v8.94
				c0,11.73-9.6,21.33-21.33,21.33h-118.72c28.29-12.57,54.3-29.58,63.59-51.6h55.13C358.957,265.53,368.557,275.13,368.557,286.86z
				"/>
			<g>
				
					<linearGradient id="SVGID_00000041987307932246256230000017582286459772709790_" gradientUnits="userSpaceOnUse" x1="121" y1="291.33" x2="619.5156" y2="291.33">
					<stop  offset="0" style="stop-color:#595959"/>
					<stop  offset="0.8969" style="stop-color:#323130"/>
					<stop  offset="1" style="stop-color:#2D2C2B"/>
				</linearGradient>
				<path style="fill:url(#SVGID_00000041987307932246256230000017582286459772709790_);" d="M292.097,265.53
					c-9.29,22.02-35.3,39.03-63.59,51.6h-87.23c-11.74,0-21.33-9.6-21.33-21.33v-8.94c0-11.73,9.59-21.33,21.33-21.33H292.097z"/>
			</g>
			<g>
				
					<text transform="matrix(1 0 0 1 145.6152 296.8037)" style="fill:#FFFFFF; font-family:'Montserrat-ExtraBold'; font-size:15.9702px;">WE’LL BE BACK SOON</text>
			</g>
		</g>
	</g>
</g>
<g id="DESIGNED_BY_FREEPIK">
	<g>
		<g id="XMLID_319_">
			<g id="XMLID_338_">
				<path id="XMLID_346_" style="fill:#F8FAFB;" d="M260.104,466.439c-0.432,0.443-0.803,0.931-1.108,1.453l-0.465-0.241
					c-0.067-0.298-0.349-0.503-0.659-0.466c-0.331,0.039-0.568,0.339-0.529,0.67c0.039,0.331,0.339,0.568,0.67,0.529
					c0.065-0.008,0.127-0.026,0.184-0.052l0.451,0.234c-0.251,0.554-0.433,1.139-0.539,1.744l0.746,0.132
					c0.23-1.306,0.85-2.507,1.792-3.473L260.104,466.439z"/>
				<path id="XMLID_345_" style="fill:#F8FAFB;" d="M265.592,464.137c-0.171,0-0.341,0.006-0.51,0.017l-0.074-0.626
					c0.188-0.149,0.296-0.389,0.266-0.645c-0.046-0.393-0.402-0.674-0.795-0.628c-0.393,0.046-0.674,0.402-0.628,0.795
					c0.03,0.254,0.189,0.461,0.404,0.564l0.074,0.624c-0.714,0.116-1.403,0.332-2.06,0.646l0.327,0.684
					c0.934-0.447,1.942-0.673,2.995-0.673c0.496,0,0.993,0.053,1.475,0.158l0.161-0.741
					C266.693,464.195,266.142,464.137,265.592,464.137z"/>
				<path id="XMLID_344_" style="fill:#F8FAFB;" d="M272.194,466.684c0.331-0.04,0.566-0.341,0.525-0.672
					c-0.04-0.331-0.341-0.566-0.672-0.526c-0.309,0.038-0.535,0.304-0.53,0.609l-0.416,0.363c-0.418-0.43-0.889-0.813-1.408-1.139
					l-0.404,0.641c1.134,0.715,2.021,1.726,2.563,2.925l0.691-0.313c-0.251-0.554-0.568-1.072-0.942-1.545l0.402-0.351
					C272.065,466.689,272.129,466.692,272.194,466.684z"/>
				<path id="XMLID_343_" style="fill:#F8FAFB;" d="M265.044,474.345c-0.386,0.023-0.775,0.035-1.157,0.035
					c-0.88,0-1.733-0.061-2.478-0.179c-0.39-0.062-0.846-0.155-1.27-0.292c1.046,1.861,3.069,3.125,5.388,3.125
					c2.855,0,5.262-1.916,5.95-4.504c-0.682,0.449-1.505,0.825-2.459,1.123C267.839,474.02,266.464,474.26,265.044,474.345z"/>
				<path id="XMLID_339_" style="fill:#F8FAFB;" d="M265.592,465.653c-3.352,0-6.08,2.666-6.08,5.944
					c0,0.425,0.046,0.849,0.137,1.261c0.674,0.483,2.706,0.89,5.348,0.731c2.879-0.173,5.297-0.957,6.672-2.158
					c-0.005-0.195-0.021-0.39-0.045-0.582C271.244,467.886,268.65,465.653,265.592,465.653z M263.432,472.168
					c-1.02,0-1.85-0.83-1.85-1.85c0-1.02,0.83-1.85,1.85-1.85c1.02,0,1.85,0.83,1.85,1.85
					C265.282,471.338,264.452,472.168,263.432,472.168z M268.17,471.259c-0.75,0-1.36-0.61-1.36-1.36s0.61-1.361,1.36-1.361
					c0.75,0,1.361,0.61,1.361,1.361S268.92,471.259,268.17,471.259z"/>
			</g>
			<path id="XMLID_336_" style="fill:#F8FAFB;" d="M281.595,467.52c-0.295-0.116-0.806-0.309-1.382-0.237
				c-0.551,0.068-0.844,0.34-0.844,1.007v0.866h2.228v1.717h-2.228v5.455h-1.932v-5.455h-1.34v-1.717h1.34v-0.888
				c0-1.68,0.896-2.783,2.568-2.783c0.642,0,1.157,0.122,1.59,0.308L281.595,467.52z"/>
			<path id="XMLID_334_" style="fill:#F8FAFB;" d="M286.298,470.852c-0.177-0.03-0.358-0.046-0.526-0.046
				c-0.896,0-1.51,0.548-1.51,1.614v3.908h-1.932v-7.172h1.873v0.785c0.451-0.673,1.14-0.977,2.021-0.977
				c0.414,0,0.848,0.128,1.094,0.337L286.298,470.852z"/>
			<path id="XMLID_331_" style="fill:#F8FAFB;" d="M293.965,472.73c0,0.222-0.015,0.489-0.037,0.651h-5.085
				c0.207,1.036,0.933,1.488,1.843,1.488c0.622,0,1.295-0.252,1.813-0.688l1.132,1.243c-0.814,0.748-1.85,1.088-3.057,1.088
				c-2.198,0-3.723-1.495-3.723-3.753c0-2.258,1.48-3.797,3.627-3.797C292.544,468.963,293.958,470.495,293.965,472.73z
				 M288.851,472.064h3.175c-0.177-0.918-0.733-1.436-1.562-1.436C289.554,470.628,289.021,471.176,288.851,472.064z"/>
			<path id="XMLID_328_" style="fill:#F8FAFB;" d="M301.618,472.73c0,0.222-0.015,0.489-0.037,0.651h-5.085
				c0.207,1.036,0.932,1.488,1.843,1.488c0.622,0,1.295-0.252,1.814-0.688l1.132,1.243c-0.814,0.748-1.85,1.088-3.057,1.088
				c-2.198,0-3.723-1.495-3.723-3.753c0-2.258,1.48-3.797,3.627-3.797C300.197,468.963,301.611,470.495,301.618,472.73z
				 M296.504,472.064h3.175c-0.178-0.918-0.733-1.436-1.562-1.436C297.207,470.628,296.674,471.176,296.504,472.064z"/>
			<path id="XMLID_325_" style="fill:#F8FAFB;" d="M309.964,472.738c0,2.154-1.495,3.775-3.471,3.775
				c-0.962,0-1.643-0.378-2.109-0.933v3.708h-1.924v-10.133h1.887v0.792c0.466-0.585,1.155-0.984,2.139-0.984
				C308.469,468.963,309.964,470.584,309.964,472.738z M304.287,472.738c0,1.132,0.747,1.976,1.843,1.976
				c1.14,0,1.85-0.881,1.85-1.976c0-1.095-0.71-1.976-1.85-1.976C305.035,470.761,304.287,471.605,304.287,472.738z"/>
			<path id="XMLID_322_" style="fill:#F8FAFB;" d="M313.068,466.809c0,0.696-0.54,1.229-1.236,1.229
				c-0.696,0-1.229-0.533-1.229-1.229c0-0.696,0.533-1.243,1.229-1.243C312.527,465.566,313.068,466.113,313.068,466.809z
				 M312.809,476.327h-1.932v-7.172h1.932V476.327z"/>
			<path id="XMLID_320_" style="fill:#F8FAFB;" d="M316.032,471.709l2.702-2.554h2.368l-3.479,3.375l3.501,3.797h-2.376
				l-2.716-2.901v2.901H314.1v-10.658h1.932V471.709z"/>
		</g>
		<g>
			<path style="fill:#F8FAFB;" d="M184.412,476.262v-1.055c-0.527,0.718-1.391,1.23-2.387,1.23c-1.846,0-3.149-1.406-3.149-3.706
				c0-2.256,1.289-3.721,3.149-3.721c0.952,0,1.816,0.469,2.387,1.245v-3.765h1.099v9.77H184.412z M184.412,474.343v-3.208
				c-0.395-0.615-1.245-1.143-2.124-1.143c-1.421,0-2.27,1.172-2.27,2.739c0,1.567,0.85,2.724,2.27,2.724
				C183.168,475.457,184.017,474.959,184.412,474.343z"/>
			<path style="fill:#F8FAFB;" d="M186.932,472.718c0-2.051,1.465-3.706,3.486-3.706c2.139,0,3.398,1.67,3.398,3.794v0.279h-5.727
				c0.088,1.333,1.025,2.446,2.549,2.446c0.805,0,1.626-0.322,2.182-0.893l0.527,0.718c-0.703,0.703-1.655,1.084-2.812,1.084
				C188.441,476.438,186.932,474.929,186.932,472.718z M190.404,469.92c-1.509,0-2.256,1.274-2.314,2.358h4.643
				C192.718,471.223,192.015,469.92,190.404,469.92z"/>
			<path style="fill:#F8FAFB;" d="M194.607,475.325l0.571-0.791c0.469,0.542,1.362,1.011,2.329,1.011c1.084,0,1.67-0.513,1.67-1.216
				c0-1.714-4.38-0.659-4.38-3.281c0-1.098,0.952-2.036,2.636-2.036c1.201,0,2.051,0.454,2.622,1.026l-0.513,0.762
				c-0.424-0.513-1.201-0.894-2.109-0.894c-0.967,0-1.567,0.483-1.567,1.113c0,1.552,4.38,0.527,4.38,3.281
				c0,1.187-0.952,2.138-2.783,2.138C196.306,476.438,195.325,476.086,194.607,475.325z"/>
			<path style="fill:#F8FAFB;" d="M201.477,467.444c0-0.41,0.337-0.747,0.732-0.747c0.41,0,0.747,0.337,0.747,0.747
				c0,0.41-0.337,0.732-0.747,0.732C201.814,468.177,201.477,467.854,201.477,467.444z M201.667,476.262v-7.075h1.099v7.075H201.667
				z"/>
			<path style="fill:#F8FAFB;" d="M204.582,478.079l0.556-0.82c0.586,0.703,1.289,0.967,2.3,0.967c1.172,0,2.27-0.571,2.27-2.124
				v-1.011c-0.513,0.718-1.377,1.26-2.373,1.26c-1.845,0-3.149-1.377-3.149-3.662c0-2.27,1.289-3.677,3.149-3.677
				c0.952,0,1.802,0.469,2.373,1.245v-1.069h1.098v6.87c0,2.344-1.641,3.076-3.369,3.076
				C206.237,479.133,205.417,478.899,204.582,478.079z M209.709,474.226v-3.091c-0.381-0.615-1.23-1.143-2.109-1.143
				c-1.421,0-2.27,1.128-2.27,2.695c0,1.553,0.849,2.695,2.27,2.695C208.478,475.383,209.328,474.842,209.709,474.226z"/>
			<path style="fill:#F8FAFB;" d="M217.413,476.262v-4.629c0-1.245-0.63-1.641-1.582-1.641c-0.865,0-1.685,0.527-2.095,1.099v5.17
				h-1.099v-7.075h1.099v1.025c0.498-0.586,1.465-1.201,2.519-1.201c1.48,0,2.256,0.747,2.256,2.285v4.966H217.413z"/>
			<path style="fill:#F8FAFB;" d="M219.933,472.718c0-2.051,1.465-3.706,3.486-3.706c2.138,0,3.398,1.67,3.398,3.794v0.279h-5.727
				c0.088,1.333,1.025,2.446,2.549,2.446c0.806,0,1.626-0.322,2.183-0.893l0.527,0.718c-0.703,0.703-1.655,1.084-2.812,1.084
				C221.441,476.438,219.933,474.929,219.933,472.718z M223.404,469.92c-1.509,0-2.256,1.274-2.314,2.358h4.643
				C225.718,471.223,225.015,469.92,223.404,469.92z"/>
			<path style="fill:#F8FAFB;" d="M233.35,476.262v-1.055c-0.527,0.718-1.392,1.23-2.388,1.23c-1.845,0-3.149-1.406-3.149-3.706
				c0-2.256,1.289-3.721,3.149-3.721c0.952,0,1.817,0.469,2.388,1.245v-3.765h1.098v9.77H233.35z M233.35,474.343v-3.208
				c-0.396-0.615-1.245-1.143-2.124-1.143c-1.421,0-2.27,1.172-2.27,2.739c0,1.567,0.849,2.724,2.27,2.724
				C232.105,475.457,232.954,474.959,233.35,474.343z"/>
			<path style="fill:#F8FAFB;" d="M239.692,476.262v-9.77h1.098v3.765c0.572-0.776,1.421-1.245,2.388-1.245
				c1.845,0,3.149,1.465,3.149,3.721c0,2.299-1.304,3.706-3.149,3.706c-0.996,0-1.86-0.513-2.388-1.23v1.055H239.692z
				 M242.9,475.457c1.436,0,2.285-1.157,2.285-2.724c0-1.568-0.85-2.739-2.285-2.739c-0.864,0-1.728,0.527-2.109,1.143v3.208
				C241.171,474.959,242.036,475.457,242.9,475.457z"/>
			<path style="fill:#F8FAFB;" d="M247.528,478.035c0.161,0.073,0.425,0.117,0.601,0.117c0.483,0,0.805-0.161,1.055-0.747
				l0.469-1.069l-2.959-7.148h1.187l2.358,5.801l2.344-5.801h1.201l-3.545,8.51c-0.425,1.025-1.143,1.421-2.08,1.435
				c-0.234,0-0.601-0.044-0.805-0.103L247.528,478.035z"/>
		</g>
	</g>
</g>
</svg>
